<svg width="98" height="32" viewBox="0 0 98 32" fill="none" xmlns="http://www.w3.org/2000/svg">
<path d="M36.515 5.34C36.365 5.08 36.225 4.865 36.095 4.695C35.975 4.525 35.85 4.395 35.72 4.305C35.59 4.205 35.45 4.14 35.3 4.11C35.15 4.07 34.98 4.05 34.79 4.05V3.45H39.83V4.05C39.41 4.05 39.115 4.09 38.945 4.17C38.775 4.25 38.69 4.37 38.69 4.53C38.69 4.63 38.72 4.75 38.78 4.89C38.84 5.03 38.935 5.22 39.065 5.46L41.21 9.555H41.27L43.16 6.405C43.49 5.845 43.72 5.43 43.85 5.16C43.98 4.88 44.045 4.66 44.045 4.5C44.045 4.33 43.965 4.215 43.805 4.155C43.655 4.085 43.37 4.05 42.95 4.05V3.45H46.715V4.05C46.495 4.05 46.295 4.085 46.115 4.155C45.935 4.225 45.745 4.365 45.545 4.575C45.355 4.775 45.135 5.06 44.885 5.43C44.645 5.79 44.355 6.265 44.015 6.855L41.825 10.605V12.135C41.825 12.635 41.845 13.035 41.885 13.335C41.935 13.635 42.015 13.865 42.125 14.025C42.245 14.175 42.405 14.275 42.605 14.325C42.805 14.375 43.065 14.4 43.385 14.4V15H38.045V14.4C38.355 14.4 38.61 14.375 38.81 14.325C39.02 14.275 39.185 14.175 39.305 14.025C39.425 13.875 39.505 13.66 39.545 13.38C39.595 13.09 39.62 12.71 39.62 12.24V10.86L36.515 5.34ZM49.8809 6.9C50.4809 6.9 51.0459 7.005 51.5759 7.215C52.1159 7.415 52.5859 7.695 52.9859 8.055C53.3959 8.415 53.7159 8.845 53.9459 9.345C54.1859 9.835 54.3059 10.375 54.3059 10.965C54.3059 11.575 54.1859 12.135 53.9459 12.645C53.7159 13.155 53.3959 13.595 52.9859 13.965C52.5859 14.335 52.1159 14.625 51.5759 14.835C51.0459 15.045 50.4809 15.15 49.8809 15.15C49.2909 15.15 48.7309 15.05 48.2009 14.85C47.6709 14.64 47.2059 14.35 46.8059 13.98C46.4059 13.61 46.0909 13.17 45.8609 12.66C45.6309 12.14 45.5159 11.575 45.5159 10.965C45.5159 10.375 45.6309 9.83 45.8609 9.33C46.0909 8.83 46.4059 8.4 46.8059 8.04C47.2059 7.68 47.6709 7.4 48.2009 7.2C48.7309 7 49.2909 6.9 49.8809 6.9ZM49.8809 7.77C49.5809 7.77 49.3059 7.85 49.0559 8.01C48.8059 8.16 48.5909 8.375 48.4109 8.655C48.2409 8.935 48.1059 9.275 48.0059 9.675C47.9159 10.065 47.8709 10.5 47.8709 10.98C47.8709 11.48 47.9159 11.93 48.0059 12.33C48.1059 12.73 48.2409 13.07 48.4109 13.35C48.5909 13.63 48.8009 13.85 49.0409 14.01C49.2909 14.16 49.5709 14.235 49.8809 14.235C50.1909 14.235 50.4709 14.16 50.7209 14.01C50.9809 13.85 51.2009 13.63 51.3809 13.35C51.5609 13.06 51.7009 12.715 51.8009 12.315C51.9009 11.915 51.9509 11.47 51.9509 10.98C51.9509 10.5 51.9009 10.065 51.8009 9.675C51.7009 9.285 51.5609 8.95 51.3809 8.67C51.2009 8.38 50.9809 8.16 50.7209 8.01C50.4709 7.85 50.1909 7.77 49.8809 7.77ZM61.8383 9.51C61.8383 9.11 61.8283 8.795 61.8083 8.565C61.7883 8.325 61.7333 8.145 61.6433 8.025C61.5533 7.895 61.4183 7.81 61.2383 7.77C61.0683 7.72 60.8333 7.68 60.5333 7.65V7.05H63.9233V11.595C63.9233 12.205 63.9283 12.685 63.9383 13.035C63.9583 13.375 63.9883 13.63 64.0283 13.8C64.0583 13.93 64.0933 14.035 64.1333 14.115C64.1733 14.185 64.2383 14.245 64.3283 14.295C64.4183 14.335 64.5383 14.365 64.6883 14.385C64.8483 14.395 65.0533 14.4 65.3033 14.4V14.985L62.3183 15.165L62.1533 13.83H62.0933C61.8333 14.25 61.4683 14.575 60.9983 14.805C60.5283 15.035 60.0033 15.15 59.4233 15.15C58.3533 15.15 57.5383 14.77 56.9783 14.01C56.5483 13.43 56.3333 12.605 56.3333 11.535V9.51C56.3333 9.1 56.3233 8.78 56.3033 8.55C56.2833 8.31 56.2283 8.13 56.1383 8.01C56.0583 7.89 55.9333 7.81 55.7633 7.77C55.5933 7.72 55.3583 7.68 55.0583 7.65V7.05H58.4183V11.295C58.4183 12.305 58.5433 13.04 58.7933 13.5C59.0433 13.95 59.4433 14.175 59.9933 14.175C60.5833 14.175 61.0383 13.905 61.3583 13.365C61.6783 12.845 61.8383 12.08 61.8383 11.07V9.51ZM69.368 12.675C69.368 13.065 69.383 13.375 69.413 13.605C69.453 13.825 69.528 13.995 69.638 14.115C69.748 14.235 69.908 14.315 70.118 14.355C70.328 14.385 70.608 14.4 70.958 14.4V15H65.948V14.4C66.248 14.38 66.488 14.35 66.668 14.31C66.848 14.27 66.983 14.19 67.073 14.07C67.163 13.95 67.218 13.78 67.238 13.56C67.268 13.33 67.283 13.025 67.283 12.645V10.815C67.283 10.195 67.268 9.7 67.238 9.33C67.208 8.96 67.143 8.675 67.043 8.475C66.943 8.275 66.798 8.145 66.608 8.085C66.428 8.015 66.188 7.98 65.888 7.98V7.455L68.888 6.9L69.128 8.625H69.188C69.458 8.095 69.813 7.675 70.253 7.365C70.693 7.055 71.158 6.9 71.648 6.9C72.028 6.9 72.338 6.995 72.578 7.185C72.818 7.375 72.938 7.615 72.938 7.905C72.938 8.225 72.843 8.495 72.653 8.715C72.473 8.935 72.223 9.045 71.903 9.045C71.753 9.045 71.618 9.015 71.498 8.955C71.378 8.895 71.268 8.83 71.168 8.76C71.078 8.68 70.983 8.61 70.883 8.55C70.793 8.48 70.698 8.445 70.598 8.445C70.408 8.445 70.228 8.57 70.058 8.82C69.888 9.07 69.748 9.405 69.638 9.825C69.558 10.125 69.493 10.465 69.443 10.845C69.393 11.215 69.368 11.585 69.368 11.955V12.675Z" fill="url(#paint0_linear_34_910)"/>
<path d="M47.86 28H37.525V27.4C37.855 27.39 38.125 27.36 38.335 27.31C38.545 27.26 38.705 27.175 38.815 27.055C38.925 26.935 39 26.765 39.04 26.545C39.08 26.325 39.1 26.04 39.1 25.69V18.76C39.1 18.41 39.08 18.13 39.04 17.92C39.01 17.7 38.945 17.53 38.845 17.41C38.745 17.28 38.6 17.195 38.41 17.155C38.23 17.105 37.99 17.07 37.69 17.05V16.45H42.865V17.05C42.525 17.06 42.25 17.09 42.04 17.14C41.84 17.19 41.685 17.28 41.575 17.41C41.465 17.54 41.39 17.72 41.35 17.95C41.32 18.18 41.305 18.485 41.305 18.865V25.15C41.305 25.57 41.345 25.915 41.425 26.185C41.515 26.445 41.665 26.65 41.875 26.8C42.085 26.94 42.365 27.04 42.715 27.1C43.065 27.15 43.5 27.175 44.02 27.175C44.6 27.175 45.085 27.14 45.475 27.07C45.865 27 46.19 26.87 46.45 26.68C46.72 26.48 46.935 26.215 47.095 25.885C47.255 25.555 47.39 25.125 47.5 24.595H48.1L47.86 28ZM52.1782 25.54C52.1782 25.94 52.1932 26.26 52.2232 26.5C52.2532 26.74 52.3132 26.925 52.4032 27.055C52.4932 27.185 52.6232 27.275 52.7932 27.325C52.9632 27.365 53.1932 27.39 53.4832 27.4V28H48.7582V27.4C49.0382 27.39 49.2632 27.36 49.4332 27.31C49.6132 27.25 49.7482 27.16 49.8382 27.04C49.9382 26.91 50.0032 26.735 50.0332 26.515C50.0732 26.285 50.0932 25.995 50.0932 25.645V23.8C50.0932 23.22 50.0832 22.745 50.0632 22.375C50.0432 21.995 50.0182 21.735 49.9882 21.595C49.9382 21.345 49.8232 21.18 49.6432 21.1C49.4732 21.02 49.1582 20.98 48.6982 20.98V20.47L52.1782 19.9V25.54ZM49.9732 16.72C49.9732 16.39 50.0832 16.115 50.3032 15.895C50.5332 15.665 50.8082 15.55 51.1282 15.55C51.4582 15.55 51.7332 15.665 51.9532 15.895C52.1832 16.115 52.2982 16.39 52.2982 16.72C52.2982 17.04 52.1832 17.315 51.9532 17.545C51.7332 17.765 51.4582 17.875 51.1282 17.875C50.8082 17.875 50.5332 17.765 50.3032 17.545C50.0832 17.315 49.9732 17.04 49.9732 16.72ZM57.1182 24.715C57.1182 25.085 57.1682 25.43 57.2682 25.75C57.3782 26.06 57.5232 26.33 57.7032 26.56C57.8832 26.79 58.0982 26.97 58.3482 27.1C58.5982 27.23 58.8732 27.295 59.1732 27.295C59.7732 27.295 60.2282 27.02 60.5382 26.47C60.8482 25.92 61.0032 25.11 61.0032 24.04C61.0032 23 60.8482 22.21 60.5382 21.67C60.2382 21.12 59.7832 20.845 59.1732 20.845C58.8132 20.845 58.4782 20.945 58.1682 21.145C57.8682 21.335 57.6332 21.605 57.4632 21.955C57.2332 22.435 57.1182 23.04 57.1182 23.77V24.715ZM57.0882 21.085H57.1482C57.4082 20.705 57.7432 20.415 58.1532 20.215C58.5632 20.005 59.0282 19.9 59.5482 19.9C60.0782 19.9 60.5682 20.01 61.0182 20.23C61.4782 20.44 61.8732 20.73 62.2032 21.1C62.5432 21.47 62.8082 21.905 62.9982 22.405C63.1882 22.905 63.2832 23.44 63.2832 24.01C63.2832 24.61 63.1782 25.165 62.9682 25.675C62.7682 26.175 62.4882 26.61 62.1282 26.98C61.7782 27.35 61.3632 27.64 60.8832 27.85C60.4132 28.06 59.9132 28.165 59.3832 28.165C58.8332 28.165 58.3132 28.06 57.8232 27.85C57.3432 27.63 56.9582 27.345 56.6682 26.995L55.5282 28H55.0182V19.075C55.0182 18.135 54.9532 17.49 54.8232 17.14C54.7932 17.07 54.7582 17.01 54.7182 16.96C54.6782 16.91 54.6182 16.87 54.5382 16.84C54.4682 16.8 54.3682 16.77 54.2382 16.75C54.1082 16.72 53.9382 16.69 53.7282 16.66V16.15L57.0882 15.55V21.085ZM67.7206 25.675C67.7206 26.065 67.7356 26.375 67.7656 26.605C67.8056 26.825 67.8806 26.995 67.9906 27.115C68.1006 27.235 68.2606 27.315 68.4706 27.355C68.6806 27.385 68.9606 27.4 69.3106 27.4V28H64.3006V27.4C64.6006 27.38 64.8406 27.35 65.0206 27.31C65.2006 27.27 65.3356 27.19 65.4256 27.07C65.5156 26.95 65.5706 26.78 65.5906 26.56C65.6206 26.33 65.6356 26.025 65.6356 25.645V23.815C65.6356 23.195 65.6206 22.7 65.5906 22.33C65.5606 21.96 65.4956 21.675 65.3956 21.475C65.2956 21.275 65.1506 21.145 64.9606 21.085C64.7806 21.015 64.5406 20.98 64.2406 20.98V20.455L67.2406 19.9L67.4806 21.625H67.5406C67.8106 21.095 68.1656 20.675 68.6056 20.365C69.0456 20.055 69.5106 19.9 70.0006 19.9C70.3806 19.9 70.6906 19.995 70.9306 20.185C71.1706 20.375 71.2906 20.615 71.2906 20.905C71.2906 21.225 71.1956 21.495 71.0056 21.715C70.8256 21.935 70.5756 22.045 70.2556 22.045C70.1056 22.045 69.9706 22.015 69.8506 21.955C69.7306 21.895 69.6206 21.83 69.5206 21.76C69.4306 21.68 69.3356 21.61 69.2356 21.55C69.1456 21.48 69.0506 21.445 68.9506 21.445C68.7606 21.445 68.5806 21.57 68.4106 21.82C68.2406 22.07 68.1006 22.405 67.9906 22.825C67.9106 23.125 67.8456 23.465 67.7956 23.845C67.7456 24.215 67.7206 24.585 67.7206 24.955V25.675ZM76.4813 23.725C75.6413 24.105 75.0063 24.46 74.5763 24.79C74.1563 25.11 73.9463 25.445 73.9463 25.795C73.9463 26.085 74.0263 26.315 74.1863 26.485C74.3463 26.655 74.5463 26.74 74.7863 26.74C75.0263 26.74 75.2513 26.7 75.4613 26.62C75.6713 26.53 75.8513 26.415 76.0013 26.275C76.1513 26.135 76.2663 25.97 76.3463 25.78C76.4363 25.58 76.4813 25.37 76.4813 25.15V23.725ZM76.4813 22.93V22.3C76.4813 21.72 76.3763 21.3 76.1663 21.04C75.9663 20.77 75.6513 20.635 75.2213 20.635C74.9313 20.635 74.7113 20.715 74.5613 20.875C74.4113 21.025 74.2713 21.28 74.1413 21.64C74.0513 21.89 73.9213 22.085 73.7513 22.225C73.5913 22.365 73.3663 22.435 73.0763 22.435C72.7963 22.435 72.5813 22.35 72.4313 22.18C72.2813 22.01 72.2063 21.77 72.2063 21.46C72.2063 20.98 72.4663 20.6 72.9863 20.32C73.5163 20.04 74.3113 19.9 75.3713 19.9C76.4913 19.9 77.2913 20.105 77.7713 20.515C78.2513 20.915 78.4913 21.59 78.4913 22.54V25.825C78.4913 26.675 78.6613 27.1 79.0013 27.1C79.1913 27.1 79.3663 27.035 79.5263 26.905L79.7513 27.34C79.6113 27.59 79.3913 27.79 79.0913 27.94C78.8013 28.08 78.4713 28.15 78.1013 28.15C77.6413 28.15 77.2913 28.01 77.0513 27.73C76.8113 27.45 76.6913 27.055 76.6913 26.545H76.6163C76.3263 27.065 75.9513 27.46 75.4913 27.73C75.0313 28 74.5063 28.135 73.9163 28.135C73.2863 28.135 72.7813 27.96 72.4013 27.61C72.0213 27.25 71.8313 26.785 71.8313 26.215C71.8313 25.775 72.0263 25.365 72.4163 24.985C72.8063 24.595 73.4563 24.215 74.3663 23.845L76.4813 22.93ZM83.8046 25.675C83.8046 26.065 83.8196 26.375 83.8496 26.605C83.8896 26.825 83.9646 26.995 84.0746 27.115C84.1846 27.235 84.3446 27.315 84.5546 27.355C84.7646 27.385 85.0446 27.4 85.3946 27.4V28H80.3846V27.4C80.6846 27.38 80.9246 27.35 81.1046 27.31C81.2846 27.27 81.4196 27.19 81.5096 27.07C81.5996 26.95 81.6546 26.78 81.6746 26.56C81.7046 26.33 81.7196 26.025 81.7196 25.645V23.815C81.7196 23.195 81.7046 22.7 81.6746 22.33C81.6446 21.96 81.5796 21.675 81.4796 21.475C81.3796 21.275 81.2346 21.145 81.0446 21.085C80.8646 21.015 80.6246 20.98 80.3246 20.98V20.455L83.3246 19.9L83.5646 21.625H83.6246C83.8946 21.095 84.2496 20.675 84.6896 20.365C85.1296 20.055 85.5946 19.9 86.0846 19.9C86.4646 19.9 86.7746 19.995 87.0146 20.185C87.2546 20.375 87.3746 20.615 87.3746 20.905C87.3746 21.225 87.2796 21.495 87.0896 21.715C86.9096 21.935 86.6596 22.045 86.3396 22.045C86.1896 22.045 86.0546 22.015 85.9346 21.955C85.8146 21.895 85.7046 21.83 85.6046 21.76C85.5146 21.68 85.4196 21.61 85.3196 21.55C85.2296 21.48 85.1346 21.445 85.0346 21.445C84.8446 21.445 84.6646 21.57 84.4946 21.82C84.3246 22.07 84.1846 22.405 84.0746 22.825C83.9946 23.125 83.9296 23.465 83.8796 23.845C83.8296 24.215 83.8046 24.585 83.8046 24.955V25.675ZM91.7103 30.355C91.6003 30.575 91.4603 30.78 91.2903 30.97C91.1303 31.16 90.9453 31.32 90.7353 31.45C90.5353 31.59 90.3253 31.7 90.1053 31.78C89.8853 31.86 89.6653 31.9 89.4453 31.9C89.1153 31.9 88.8503 31.82 88.6503 31.66C88.4503 31.5 88.3503 31.285 88.3503 31.015C88.3503 30.765 88.4353 30.57 88.6053 30.43C88.7853 30.29 89.0703 30.205 89.4603 30.175C90.3503 30.105 90.9253 29.825 91.1853 29.335L91.5903 28.555L88.9353 21.985C88.8153 21.695 88.7103 21.465 88.6203 21.295C88.5403 21.125 88.4503 20.995 88.3503 20.905C88.2503 20.805 88.1353 20.74 88.0053 20.71C87.8753 20.68 87.7153 20.66 87.5253 20.65V20.05H92.0703V20.65C91.6803 20.65 91.4053 20.69 91.2453 20.77C91.0953 20.84 91.0203 20.975 91.0203 21.175C91.0203 21.255 91.0303 21.35 91.0503 21.46C91.0803 21.56 91.1153 21.665 91.1553 21.775L92.6853 26.155H92.7453L94.0353 23.23C94.1653 22.92 94.2753 22.665 94.3653 22.465C94.4553 22.255 94.5203 22.08 94.5603 21.94C94.6103 21.79 94.6453 21.67 94.6653 21.58C94.6853 21.49 94.6953 21.4 94.6953 21.31C94.6953 21.05 94.6203 20.875 94.4703 20.785C94.3303 20.695 94.0403 20.65 93.6003 20.65V20.05H97.2153V20.65C97.0153 20.65 96.8453 20.68 96.7053 20.74C96.5653 20.79 96.4203 20.9 96.2703 21.07C96.1303 21.24 95.9703 21.495 95.7903 21.835C95.6203 22.165 95.4053 22.605 95.1453 23.155L91.7103 30.355Z" fill="url(#paint1_linear_34_910)"/>
<rect x="4.59961" y="8.64517" width="19.8" height="17.0323" fill="url(#paint2_linear_34_910)"/>
<path d="M23.6125 8.59429V4H23.41C19.63 4.17143 16.4913 6.64 14.6012 8.59429L14.5 8.69714L14.3987 8.59429C12.475 6.64 9.37 4.17143 5.59 4H5.3875V8.59429H1V16.5143C1 18.4343 1.0675 20.3543 1.2025 21.9314C1.32613 23.4527 1.98376 24.8782 3.05552 25.9481C4.12728 27.018 5.5418 27.661 7.04125 27.76C9.4375 27.8971 11.9688 28 14.5 28C17.0312 28 19.5625 27.8971 21.9587 27.7257C23.4582 27.6268 24.8727 26.9837 25.9445 25.9138C27.0162 24.8439 27.6739 23.4184 27.7975 21.8971C27.9325 20.32 28 18.4 28 16.48V8.59429H23.6125ZM23.6125 16.5143C23.6125 18.3314 23.545 20.1143 23.41 21.5543C23.3087 22.48 22.5662 23.2343 21.655 23.2686C16.891 23.6114 12.109 23.6114 7.345 23.2686C6.43375 23.2343 5.6575 22.48 5.59 21.5543C5.455 20.1143 5.3875 18.2971 5.3875 16.5143V8.59429C8.56 8.73143 11.7325 12.1943 12.6775 13.5314L14.5 16.1029L16.3225 13.5314C17.2675 12.16 20.44 8.73143 23.6125 8.59429V16.5143Z" fill="url(#paint3_linear_34_910)"/>
<path d="M1 8.5V20C1 24.4183 4.58172 28 9 28H20C24.4183 28 28 24.4183 28 20V8.5" stroke="#6F0000"/>
<path d="M5.5 4C8.5 4.75 14.5 6.85 14.5 9.25" stroke="#6F0000"/>
<path d="M23.5 4C20.5 4.75 14.5 6.85 14.5 9.25" stroke="#6F0000"/>
<defs>
<linearGradient id="paint0_linear_34_910" x1="55.5" y1="0" x2="55.5" y2="18" gradientUnits="userSpaceOnUse">
<stop stop-color="#FFEFBA"/>
<stop offset="1" stop-color="#F8B500"/>
</linearGradient>
<linearGradient id="paint1_linear_34_910" x1="67.5" y1="13" x2="67.5" y2="31" gradientUnits="userSpaceOnUse">
<stop stop-color="#FFEFBA"/>
<stop offset="1" stop-color="#F8B500"/>
</linearGradient>
<linearGradient id="paint2_linear_34_910" x1="14.4996" y1="8.64517" x2="14.4996" y2="25.6774" gradientUnits="userSpaceOnUse">
<stop stop-color="#FFEFBA"/>
<stop offset="1" stop-color="#F8B500"/>
</linearGradient>
<linearGradient id="paint3_linear_34_910" x1="14.5" y1="4" x2="14.5" y2="28" gradientUnits="userSpaceOnUse">
<stop stop-color="#6F0000"/>
<stop offset="1" stop-color="#0F0C29"/>
</linearGradient>
</defs>
</svg>
