<svg width="211" height="108" viewBox="0 0 211 108" fill="none" xmlns="http://www.w3.org/2000/svg">
<path d="M4.03 80.68C3.73 80.16 3.45 79.73 3.19 79.39C2.95 79.05 2.7 78.79 2.44 78.61C2.18 78.41 1.9 78.28 1.6 78.22C1.3 78.14 0.96 78.1 0.58 78.1V76.9H10.66V78.1C9.82 78.1 9.23 78.18 8.89 78.34C8.55 78.5 8.38 78.74 8.38 79.06C8.38 79.26 8.44 79.5 8.56 79.78C8.68 80.06 8.87 80.44 9.13 80.92L13.42 89.11H13.54L17.32 82.81C17.98 81.69 18.44 80.86 18.7 80.32C18.96 79.76 19.09 79.32 19.09 79C19.09 78.66 18.93 78.43 18.61 78.31C18.31 78.17 17.74 78.1 16.9 78.1V76.9H24.43V78.1C23.99 78.1 23.59 78.17 23.23 78.31C22.87 78.45 22.49 78.73 22.09 79.15C21.71 79.55 21.27 80.12 20.77 80.86C20.29 81.58 19.71 82.53 19.03 83.71L14.65 91.21V94.27C14.65 95.27 14.69 96.07 14.77 96.67C14.87 97.27 15.03 97.73 15.25 98.05C15.49 98.35 15.81 98.55 16.21 98.65C16.61 98.75 17.13 98.8 17.77 98.8V100H7.09V98.8C7.71 98.8 8.22 98.75 8.62 98.65C9.04 98.55 9.37 98.35 9.61 98.05C9.85 97.75 10.01 97.32 10.09 96.76C10.19 96.18 10.24 95.42 10.24 94.48V91.72L4.03 80.68ZM30.7619 83.8C31.9619 83.8 33.0919 84.01 34.1519 84.43C35.2319 84.83 36.1719 85.39 36.9719 86.11C37.7919 86.83 38.4319 87.69 38.8919 88.69C39.3719 89.67 39.6119 90.75 39.6119 91.93C39.6119 93.15 39.3719 94.27 38.8919 95.29C38.4319 96.31 37.7919 97.19 36.9719 97.93C36.1719 98.67 35.2319 99.25 34.1519 99.67C33.0919 100.09 31.9619 100.3 30.7619 100.3C29.5819 100.3 28.4619 100.1 27.4019 99.7C26.3419 99.28 25.4119 98.7 24.6119 97.96C23.8119 97.22 23.1819 96.34 22.7219 95.32C22.2619 94.28 22.0319 93.15 22.0319 91.93C22.0319 90.75 22.2619 89.66 22.7219 88.66C23.1819 87.66 23.8119 86.8 24.6119 86.08C25.4119 85.36 26.3419 84.8 27.4019 84.4C28.4619 84 29.5819 83.8 30.7619 83.8ZM30.7619 85.54C30.1619 85.54 29.6119 85.7 29.1119 86.02C28.6119 86.32 28.1819 86.75 27.8219 87.31C27.4819 87.87 27.2119 88.55 27.0119 89.35C26.8319 90.13 26.7419 91 26.7419 91.96C26.7419 92.96 26.8319 93.86 27.0119 94.66C27.2119 95.46 27.4819 96.14 27.8219 96.7C28.1819 97.26 28.6019 97.7 29.0819 98.02C29.5819 98.32 30.1419 98.47 30.7619 98.47C31.3819 98.47 31.9419 98.32 32.4419 98.02C32.9619 97.7 33.4019 97.26 33.7619 96.7C34.1219 96.12 34.4019 95.43 34.6019 94.63C34.8019 93.83 34.9019 92.94 34.9019 91.96C34.9019 91 34.8019 90.13 34.6019 89.35C34.4019 88.57 34.1219 87.9 33.7619 87.34C33.4019 86.76 32.9619 86.32 32.4419 86.02C31.9419 85.7 31.3819 85.54 30.7619 85.54ZM54.6766 89.02C54.6766 88.22 54.6566 87.59 54.6166 87.13C54.5766 86.65 54.4666 86.29 54.2866 86.05C54.1066 85.79 53.8366 85.62 53.4766 85.54C53.1366 85.44 52.6666 85.36 52.0666 85.3V84.1H58.8466V93.19C58.8466 94.41 58.8566 95.37 58.8766 96.07C58.9166 96.75 58.9766 97.26 59.0566 97.6C59.1166 97.86 59.1866 98.07 59.2666 98.23C59.3466 98.37 59.4766 98.49 59.6566 98.59C59.8366 98.67 60.0766 98.73 60.3766 98.77C60.6966 98.79 61.1066 98.8 61.6066 98.8V99.97L55.6366 100.33L55.3066 97.66H55.1866C54.6666 98.5 53.9366 99.15 52.9966 99.61C52.0566 100.07 51.0066 100.3 49.8466 100.3C47.7066 100.3 46.0766 99.54 44.9566 98.02C44.0966 96.86 43.6666 95.21 43.6666 93.07V89.02C43.6666 88.2 43.6466 87.56 43.6066 87.1C43.5666 86.62 43.4566 86.26 43.2766 86.02C43.1166 85.78 42.8666 85.62 42.5266 85.54C42.1866 85.44 41.7166 85.36 41.1166 85.3V84.1H47.8366V92.59C47.8366 94.61 48.0866 96.08 48.5866 97C49.0866 97.9 49.8866 98.35 50.9866 98.35C52.1666 98.35 53.0766 97.81 53.7166 96.73C54.3566 95.69 54.6766 94.16 54.6766 92.14V89.02ZM69.7361 95.35C69.7361 96.13 69.7661 96.75 69.8261 97.21C69.9061 97.65 70.0561 97.99 70.2761 98.23C70.4961 98.47 70.8161 98.63 71.2361 98.71C71.6561 98.77 72.2161 98.8 72.9161 98.8V100H62.8961V98.8C63.4961 98.76 63.9761 98.7 64.3361 98.62C64.6961 98.54 64.9661 98.38 65.1461 98.14C65.3261 97.9 65.4361 97.56 65.4761 97.12C65.5361 96.66 65.5661 96.05 65.5661 95.29V91.63C65.5661 90.39 65.5361 89.4 65.4761 88.66C65.4161 87.92 65.2861 87.35 65.0861 86.95C64.8861 86.55 64.5961 86.29 64.2161 86.17C63.8561 86.03 63.3761 85.96 62.7761 85.96V84.91L68.7761 83.8L69.2561 87.25H69.3761C69.9161 86.19 70.6261 85.35 71.5061 84.73C72.3861 84.11 73.3161 83.8 74.2961 83.8C75.0561 83.8 75.6761 83.99 76.1561 84.37C76.6361 84.75 76.8761 85.23 76.8761 85.81C76.8761 86.45 76.6861 86.99 76.3061 87.43C75.9461 87.87 75.4461 88.09 74.8061 88.09C74.5061 88.09 74.2361 88.03 73.9961 87.91C73.7561 87.79 73.5361 87.66 73.3361 87.52C73.1561 87.36 72.9661 87.22 72.7661 87.1C72.5861 86.96 72.3961 86.89 72.1961 86.89C71.8161 86.89 71.4561 87.14 71.1161 87.64C70.7761 88.14 70.4961 88.81 70.2761 89.65C70.1161 90.25 69.9861 90.93 69.8861 91.69C69.7861 92.43 69.7361 93.17 69.7361 93.91V95.35ZM106.099 100H85.4289V98.8C86.0889 98.78 86.6289 98.72 87.0489 98.62C87.4689 98.52 87.7889 98.35 88.0089 98.11C88.2289 97.87 88.3789 97.53 88.4589 97.09C88.5389 96.65 88.5789 96.08 88.5789 95.38V81.52C88.5789 80.82 88.5389 80.26 88.4589 79.84C88.3989 79.4 88.2689 79.06 88.0689 78.82C87.8689 78.56 87.5789 78.39 87.1989 78.31C86.8389 78.21 86.3589 78.14 85.7589 78.1V76.9H96.1089V78.1C95.4289 78.12 94.8789 78.18 94.4589 78.28C94.0589 78.38 93.7489 78.56 93.5289 78.82C93.3089 79.08 93.1589 79.44 93.0789 79.9C93.0189 80.36 92.9889 80.97 92.9889 81.73V94.3C92.9889 95.14 93.0689 95.83 93.2289 96.37C93.4089 96.89 93.7089 97.3 94.1289 97.6C94.5489 97.88 95.1089 98.08 95.8089 98.2C96.5089 98.3 97.3789 98.35 98.4189 98.35C99.5789 98.35 100.549 98.28 101.329 98.14C102.109 98 102.759 97.74 103.279 97.36C103.819 96.96 104.249 96.43 104.569 95.77C104.889 95.11 105.159 94.25 105.379 93.19H106.579L106.099 100ZM114.735 95.08C114.735 95.88 114.765 96.52 114.825 97C114.885 97.48 115.005 97.85 115.185 98.11C115.365 98.37 115.625 98.55 115.965 98.65C116.305 98.73 116.765 98.78 117.345 98.8V100H107.895V98.8C108.455 98.78 108.905 98.72 109.245 98.62C109.605 98.5 109.875 98.32 110.055 98.08C110.255 97.82 110.385 97.47 110.445 97.03C110.525 96.57 110.565 95.99 110.565 95.29V91.6C110.565 90.44 110.545 89.49 110.505 88.75C110.465 87.99 110.415 87.47 110.355 87.19C110.255 86.69 110.025 86.36 109.665 86.2C109.325 86.04 108.695 85.96 107.775 85.96V84.94L114.735 83.8V95.08ZM110.325 77.44C110.325 76.78 110.545 76.23 110.985 75.79C111.445 75.33 111.995 75.1 112.635 75.1C113.295 75.1 113.845 75.33 114.285 75.79C114.745 76.23 114.975 76.78 114.975 77.44C114.975 78.08 114.745 78.63 114.285 79.09C113.845 79.53 113.295 79.75 112.635 79.75C111.995 79.75 111.445 79.53 110.985 79.09C110.545 78.63 110.325 78.08 110.325 77.44ZM124.615 93.43C124.615 94.17 124.715 94.86 124.915 95.5C125.135 96.12 125.425 96.66 125.785 97.12C126.145 97.58 126.575 97.94 127.075 98.2C127.575 98.46 128.125 98.59 128.725 98.59C129.925 98.59 130.835 98.04 131.455 96.94C132.075 95.84 132.385 94.22 132.385 92.08C132.385 90 132.075 88.42 131.455 87.34C130.855 86.24 129.945 85.69 128.725 85.69C128.005 85.69 127.335 85.89 126.715 86.29C126.115 86.67 125.645 87.21 125.305 87.91C124.845 88.87 124.615 90.08 124.615 91.54V93.43ZM124.555 86.17H124.675C125.195 85.41 125.865 84.83 126.685 84.43C127.505 84.01 128.435 83.8 129.475 83.8C130.535 83.8 131.515 84.02 132.415 84.46C133.335 84.88 134.125 85.46 134.785 86.2C135.465 86.94 135.995 87.81 136.375 88.81C136.755 89.81 136.945 90.88 136.945 92.02C136.945 93.22 136.735 94.33 136.315 95.35C135.915 96.35 135.355 97.22 134.635 97.96C133.935 98.7 133.105 99.28 132.145 99.7C131.205 100.12 130.205 100.33 129.145 100.33C128.045 100.33 127.005 100.12 126.025 99.7C125.065 99.26 124.295 98.69 123.715 97.99L121.435 100H120.415V82.15C120.415 80.27 120.285 78.98 120.025 78.28C119.965 78.14 119.895 78.02 119.815 77.92C119.735 77.82 119.615 77.74 119.455 77.68C119.315 77.6 119.115 77.54 118.855 77.5C118.595 77.44 118.255 77.38 117.835 77.32V76.3L124.555 75.1V86.17ZM145.82 95.35C145.82 96.13 145.85 96.75 145.91 97.21C145.99 97.65 146.14 97.99 146.36 98.23C146.58 98.47 146.9 98.63 147.32 98.71C147.74 98.77 148.3 98.8 149 98.8V100H138.98V98.8C139.58 98.76 140.06 98.7 140.42 98.62C140.78 98.54 141.05 98.38 141.23 98.14C141.41 97.9 141.52 97.56 141.56 97.12C141.62 96.66 141.65 96.05 141.65 95.29V91.63C141.65 90.39 141.62 89.4 141.56 88.66C141.5 87.92 141.37 87.35 141.17 86.95C140.97 86.55 140.68 86.29 140.3 86.17C139.94 86.03 139.46 85.96 138.86 85.96V84.91L144.86 83.8L145.34 87.25H145.46C146 86.19 146.71 85.35 147.59 84.73C148.47 84.11 149.4 83.8 150.38 83.8C151.14 83.8 151.76 83.99 152.24 84.37C152.72 84.75 152.96 85.23 152.96 85.81C152.96 86.45 152.77 86.99 152.39 87.43C152.03 87.87 151.53 88.09 150.89 88.09C150.59 88.09 150.32 88.03 150.08 87.91C149.84 87.79 149.62 87.66 149.42 87.52C149.24 87.36 149.05 87.22 148.85 87.1C148.67 86.96 148.48 86.89 148.28 86.89C147.9 86.89 147.54 87.14 147.2 87.64C146.86 88.14 146.58 88.81 146.36 89.65C146.2 90.25 146.07 90.93 145.97 91.69C145.87 92.43 145.82 93.17 145.82 93.91V95.35ZM163.341 91.45C161.661 92.21 160.391 92.92 159.531 93.58C158.691 94.22 158.271 94.89 158.271 95.59C158.271 96.17 158.431 96.63 158.751 96.97C159.071 97.31 159.471 97.48 159.951 97.48C160.431 97.48 160.881 97.4 161.301 97.24C161.721 97.06 162.081 96.83 162.381 96.55C162.681 96.27 162.911 95.94 163.071 95.56C163.251 95.16 163.341 94.74 163.341 94.3V91.45ZM163.341 89.86V88.6C163.341 87.44 163.131 86.6 162.711 86.08C162.311 85.54 161.681 85.27 160.821 85.27C160.241 85.27 159.801 85.43 159.501 85.75C159.201 86.05 158.921 86.56 158.661 87.28C158.481 87.78 158.221 88.17 157.881 88.45C157.561 88.73 157.111 88.87 156.531 88.87C155.971 88.87 155.541 88.7 155.241 88.36C154.941 88.02 154.791 87.54 154.791 86.92C154.791 85.96 155.311 85.2 156.351 84.64C157.411 84.08 159.001 83.8 161.121 83.8C163.361 83.8 164.961 84.21 165.921 85.03C166.881 85.83 167.361 87.18 167.361 89.08V95.65C167.361 97.35 167.701 98.2 168.381 98.2C168.761 98.2 169.111 98.07 169.431 97.81L169.881 98.68C169.601 99.18 169.161 99.58 168.561 99.88C167.981 100.16 167.321 100.3 166.581 100.3C165.661 100.3 164.961 100.02 164.481 99.46C164.001 98.9 163.761 98.11 163.761 97.09H163.611C163.031 98.13 162.281 98.92 161.361 99.46C160.441 100 159.391 100.27 158.211 100.27C156.951 100.27 155.941 99.92 155.181 99.22C154.421 98.5 154.041 97.57 154.041 96.43C154.041 95.55 154.431 94.73 155.211 93.97C155.991 93.19 157.291 92.43 159.111 91.69L163.341 89.86ZM177.988 95.35C177.988 96.13 178.018 96.75 178.078 97.21C178.158 97.65 178.308 97.99 178.528 98.23C178.748 98.47 179.068 98.63 179.488 98.71C179.908 98.77 180.468 98.8 181.168 98.8V100H171.148V98.8C171.748 98.76 172.228 98.7 172.588 98.62C172.948 98.54 173.218 98.38 173.398 98.14C173.578 97.9 173.688 97.56 173.728 97.12C173.788 96.66 173.818 96.05 173.818 95.29V91.63C173.818 90.39 173.788 89.4 173.728 88.66C173.668 87.92 173.538 87.35 173.338 86.95C173.138 86.55 172.848 86.29 172.468 86.17C172.108 86.03 171.628 85.96 171.028 85.96V84.91L177.028 83.8L177.508 87.25H177.628C178.168 86.19 178.878 85.35 179.758 84.73C180.638 84.11 181.568 83.8 182.548 83.8C183.308 83.8 183.928 83.99 184.408 84.37C184.888 84.75 185.128 85.23 185.128 85.81C185.128 86.45 184.938 86.99 184.558 87.43C184.198 87.87 183.698 88.09 183.058 88.09C182.758 88.09 182.488 88.03 182.248 87.91C182.008 87.79 181.788 87.66 181.588 87.52C181.408 87.36 181.218 87.22 181.018 87.1C180.838 86.96 180.648 86.89 180.448 86.89C180.068 86.89 179.708 87.14 179.368 87.64C179.028 88.14 178.748 88.81 178.528 89.65C178.368 90.25 178.238 90.93 178.138 91.69C178.038 92.43 177.988 93.17 177.988 93.91V95.35ZM193.799 104.71C193.579 105.15 193.299 105.56 192.959 105.94C192.639 106.32 192.269 106.64 191.849 106.9C191.449 107.18 191.029 107.4 190.589 107.56C190.149 107.72 189.709 107.8 189.269 107.8C188.609 107.8 188.079 107.64 187.679 107.32C187.279 107 187.079 106.57 187.079 106.03C187.079 105.53 187.249 105.14 187.589 104.86C187.949 104.58 188.519 104.41 189.299 104.35C191.079 104.21 192.229 103.65 192.749 102.67L193.559 101.11L188.249 87.97C188.009 87.39 187.799 86.93 187.619 86.59C187.459 86.25 187.279 85.99 187.079 85.81C186.879 85.61 186.649 85.48 186.389 85.42C186.129 85.36 185.809 85.32 185.429 85.3V84.1H194.519V85.3C193.739 85.3 193.189 85.38 192.869 85.54C192.569 85.68 192.419 85.95 192.419 86.35C192.419 86.51 192.439 86.7 192.479 86.92C192.539 87.12 192.609 87.33 192.689 87.55L195.749 96.31H195.869L198.449 90.46C198.709 89.84 198.929 89.33 199.109 88.93C199.289 88.51 199.419 88.16 199.499 87.88C199.599 87.58 199.669 87.34 199.709 87.16C199.749 86.98 199.769 86.8 199.769 86.62C199.769 86.1 199.619 85.75 199.319 85.57C199.039 85.39 198.459 85.3 197.579 85.3V84.1H204.809V85.3C204.409 85.3 204.069 85.36 203.789 85.48C203.509 85.58 203.219 85.8 202.919 86.14C202.639 86.48 202.319 86.99 201.959 87.67C201.619 88.33 201.189 89.21 200.669 90.31L193.799 104.71Z" fill="url(#paint0_linear_33_323)"/>
<rect x="85.5" y="10.6777" width="41.25" height="35.4839" fill="url(#paint1_linear_33_323)"/>
<path d="M125.109 10.5714V1H124.688C116.812 1.35714 110.273 6.5 106.336 10.5714L106.125 10.7857L105.914 10.5714C101.906 6.5 95.4375 1.35714 87.5625 1H87.1406V10.5714H78V27.0714C78 31.0714 78.1406 35.0714 78.4219 38.3571C78.6794 41.5265 80.0495 44.4963 82.2823 46.7252C84.5152 48.9542 87.4621 50.2938 90.5859 50.5C95.5781 50.7857 100.852 51 106.125 51C111.398 51 116.672 50.7857 121.664 50.4286C124.788 50.2224 127.735 48.8828 129.968 46.6538C132.201 44.4249 133.571 41.4551 133.828 38.2857C134.109 35 134.25 31 134.25 27V10.5714H125.109ZM125.109 27.0714C125.109 30.8571 124.969 34.5714 124.688 37.5714C124.477 39.5 122.93 41.0714 121.031 41.1429C111.106 41.8572 101.144 41.8572 91.2187 41.1429C89.3203 41.0714 87.7031 39.5 87.5625 37.5714C87.2812 34.5714 87.1406 30.7857 87.1406 27.0714V10.5714C93.75 10.8571 100.359 18.0714 102.328 20.8571L106.125 26.2143L109.922 20.8571C111.891 18 118.5 10.8571 125.109 10.5714V27.0714Z" fill="url(#paint2_linear_33_323)"/>
<path d="M78 10.3752V43.0002C78 47.4185 81.5817 51.0002 86 51.0002H126.25C130.668 51.0002 134.25 47.4185 134.25 43.0002V10.3752" stroke="#6F0000"/>
<path d="M87.375 1C93.625 2.5625 106.125 6.9375 106.125 11.9375" stroke="#6F0000"/>
<path d="M124.875 1C118.625 2.5625 106.125 6.9375 106.125 11.9375" stroke="#6F0000"/>
<defs>
<linearGradient id="paint0_linear_33_323" x1="106" y1="71" x2="106" y2="106" gradientUnits="userSpaceOnUse">
<stop stop-color="#FFEFBA"/>
<stop offset="1" stop-color="#F8B500"/>
</linearGradient>
<linearGradient id="paint1_linear_33_323" x1="106.125" y1="10.6777" x2="106.125" y2="46.1616" gradientUnits="userSpaceOnUse">
<stop stop-color="#FFEFBA"/>
<stop offset="1" stop-color="#F8B500"/>
</linearGradient>
<linearGradient id="paint2_linear_33_323" x1="106.125" y1="1" x2="106.125" y2="51" gradientUnits="userSpaceOnUse">
<stop stop-color="#6F0000"/>
<stop offset="1" stop-color="#0F0C29"/>
</linearGradient>
</defs>
</svg>
